<svg width="500" height="500" viewBox="0 0 500 500" fill="none" xmlns="http://www.w3.org/2000/svg">
<rect width="500" height="500" fill="white"/>
<path d="M417.293 262.548C417.282 268.219 414.958 270.992 410.001 271.056C402.171 271.158 394.338 271.087 386.506 271.055C379.969 271.029 378.262 266.234 378.883 260.27C378.93 259.816 379.64 259.116 380.067 259.093C382.259 258.973 384.459 259.037 386.748 259.037C386.853 260.156 386.931 260.986 387.035 262.089C394.361 262.089 401.714 262.089 409.067 262.089C409.149 261.909 409.23 261.729 409.312 261.549C408.692 261.081 408.117 260.509 407.445 260.161C399.393 255.992 391.318 251.874 383.265 247.706C377.975 244.967 376.76 235.279 381.292 231.303C382.377 230.351 383.962 229.606 385.33 229.581C393.868 229.425 402.411 229.449 410.951 229.526C414.507 229.557 417.191 232.59 417.285 236.402C417.323 237.943 417.291 239.487 417.291 241.413C414.937 241.413 412.673 241.489 410.421 241.346C410 241.319 409.274 240.403 409.293 239.925C409.364 238.119 408.416 238.014 407.179 238.02C401.088 238.049 394.996 238.016 388.905 238.084C388.246 238.091 387.591 238.608 386.934 238.889C387.449 239.438 387.876 240.187 388.491 240.505C396.117 244.444 403.717 248.45 411.437 252.16C415.648 254.184 417.945 257.144 417.293 262.548Z" fill="#050505"/>
<path d="M205.292 248.888C206.332 249.542 207.212 250.122 208.127 250.629C211.548 252.525 213.259 255.376 213.135 259.719C213.026 263.573 213.245 267.412 209.769 269.819C208.962 270.378 207.932 270.848 207.001 270.857C198.615 270.935 190.229 270.915 181.843 270.893C177.698 270.882 174.719 267.921 174.662 263.413C174.551 254.638 174.562 245.859 174.651 237.082C174.696 232.634 177.3 229.514 181.419 229.405C190.115 229.176 198.819 229.271 207.52 229.267C209.164 229.267 209.809 230.21 209.823 232.06C209.864 237.5 209.926 237.5 204.959 237.501C198.709 237.501 192.459 237.49 186.209 237.505C183.148 237.513 182.679 238.037 182.673 241.399C182.662 247.337 182.731 253.276 182.634 259.212C182.597 261.471 183.418 262.283 185.426 262.262C191.042 262.202 196.661 262.319 202.275 262.188C203.178 262.167 204.524 261.464 204.856 260.674C205.462 259.227 204.749 257.965 203.332 257.137C199.79 255.07 196.305 252.886 192.812 250.722C190.218 249.115 190.044 248.288 191.669 245.711C193.96 242.076 194.124 242.047 197.699 244.255C200.172 245.783 202.665 247.274 205.292 248.888Z" fill="#070707"/>
<path d="M158.386 237.44C151.744 237.438 145.333 237.369 138.925 237.471C136.634 237.508 135.863 236.518 135.892 234.104C135.951 229.348 135.945 229.253 140.431 229.246C147.236 229.236 154.042 229.225 160.847 229.255C167.483 229.284 171.033 233.149 171.066 240.4C171.1 247.63 170.992 254.862 171.1 262.09C171.181 267.472 168.08 271.217 162.985 270.991C155.242 270.647 147.478 270.913 139.723 270.881C135.536 270.864 133.133 267.805 132.678 263.289C132.018 256.734 134.175 252.483 139.776 249.866C143.094 248.315 146.137 246.056 149.273 244.058C150.937 242.998 152.244 243.132 153.242 245.06C153.59 245.733 153.99 246.381 154.426 246.99C155.666 248.716 155.198 249.972 153.577 250.965C149.93 253.199 146.242 255.361 142.673 257.735C141.821 258.302 140.836 259.602 140.856 260.541C140.895 262.35 142.508 262.251 143.788 262.251C149.169 262.253 154.55 262.267 159.931 262.237C162.571 262.223 163.069 261.655 163.078 258.707C163.096 253.198 163.082 247.689 163.077 242.181C163.072 237.676 162.843 237.435 158.386 237.44Z" fill="#070707"/>
<path d="M336.406 255.883C336.405 258.462 336.458 260.786 336.393 263.105C336.259 267.874 333.646 270.979 329.336 271.051C321.512 271.18 313.682 271.186 305.859 271.019C301.027 270.916 298.527 267.879 298.519 262.66C298.507 254.319 298.502 245.978 298.517 237.637C298.527 232.517 301.287 229.517 305.999 229.504C313.509 229.484 321.019 229.485 328.53 229.494C333.711 229.5 336.355 232.352 336.4 238.082C336.447 243.929 336.407 249.777 336.406 255.883ZM306.599 248.908C306.599 253.521 306.599 258.133 306.599 262.752C313.978 262.752 321.056 262.752 328.177 262.752C328.177 254.358 328.177 246.145 328.177 237.957C320.918 237.957 313.827 237.957 306.599 237.957C306.599 241.532 306.599 244.962 306.599 248.908Z" fill="#030303"/>
<path d="M294.83 244C294.831 250.449 294.845 256.639 294.826 262.828C294.811 267.904 292.247 270.977 287.609 271.053C279.866 271.18 272.117 271.185 264.374 271.039C259.652 270.951 257.124 268.025 257.097 262.93C257.053 254.419 257.243 245.904 257.046 237.399C256.953 233.38 260.16 229.307 264.281 229.424C272.179 229.647 280.087 229.468 287.99 229.519C291.867 229.544 294.657 232.543 294.804 236.779C294.885 239.097 294.826 241.421 294.83 244ZM286.727 244.779C286.727 242.493 286.727 240.208 286.727 237.966C279.345 237.966 272.266 237.966 265.168 237.966C265.168 246.33 265.168 254.536 265.168 262.753C272.437 262.753 279.516 262.753 286.727 262.753C286.727 256.816 286.727 251.055 286.727 244.779Z" fill="#020202"/>
<path d="M114.397 231.954C116.407 234.151 117.166 236.643 117.144 239.553C117.084 247.388 117.146 255.224 117.115 263.059C117.098 267.551 114.265 270.814 110.194 270.845C101.17 270.915 92.1458 270.86 83.1214 270.848C82.8212 270.848 82.521 270.769 82.0001 270.696C82.0001 269.535 81.9999 268.441 82.0001 267.348C82.0028 255.81 82.0025 244.272 82.0102 232.733C82.0123 229.665 82.5074 229.075 85.291 229.067C92.8111 229.045 100.339 228.867 107.847 229.2C110.017 229.296 112.131 230.911 114.397 231.954ZM90.9328 237.323C90.6639 238.1 90.1723 238.872 90.1621 239.653C90.0931 244.89 90.1265 250.128 90.1267 255.367C90.1268 257.569 90.1267 259.772 90.1267 262.115C95.9484 262.115 101.466 262.115 106.984 262.115C108.843 262.115 109.149 260.759 109.15 259.157C109.152 252.889 109.121 246.62 109.158 240.351C109.17 238.179 108.323 237.258 106.301 237.288C101.328 237.362 96.3542 237.314 90.9328 237.323Z" fill="#050505"/>
<path d="M216.836 232.724C216.617 230.235 217.623 229.455 219.614 229.465C229.972 229.513 240.33 229.509 250.689 229.469C252.568 229.462 253.523 230.23 253.404 232.346C253.37 232.946 253.407 233.55 253.404 234.152C253.387 237.627 253.043 238.014 249.859 238.031C247.25 238.044 244.64 238.046 242.031 238.017C239.988 237.994 239.069 238.895 239.092 241.272C239.18 250.044 239.132 258.817 239.124 267.59C239.122 270.535 238.68 271.02 235.987 271.1C235.276 271.12 234.563 271.074 233.852 271.095C231.837 271.157 231.073 270.107 231.089 267.927C231.15 259.327 231.115 250.726 231.113 242.125C231.112 238.341 230.854 238.061 227.303 238.041C225.405 238.031 223.508 238.036 221.61 238.036C216.836 238.034 216.836 238.034 216.836 232.724Z" fill="#030303"/>
<path d="M339.935 261.973C339.939 252.086 339.934 242.443 339.95 232.8C339.955 229.883 340.449 229.356 343.114 229.268C343.747 229.247 344.381 229.286 345.013 229.257C347.215 229.155 348.061 230.198 348.031 232.67C347.925 241.278 347.988 249.889 347.993 258.499C347.995 262.517 348.127 262.665 351.914 262.673C358.483 262.687 365.054 262.621 371.622 262.744C372.75 262.765 374.733 263.399 374.829 264.021C375.139 266.047 374.834 268.211 374.558 270.289C374.518 270.586 373.328 270.873 372.669 270.875C363.962 270.91 355.255 270.925 346.548 270.874C342.594 270.851 340.12 267.535 339.935 261.973Z" fill="#050505"/>
<path d="M120.964 261.564C120.966 251.857 120.96 242.407 120.972 232.957C120.977 229.49 121.293 229.254 125.62 229.268C128.53 229.277 128.958 229.748 128.959 233.029C128.964 244.541 128.965 256.053 128.959 267.564C128.958 270.597 128.664 270.891 125.792 270.901C125.002 270.903 124.211 270.861 123.424 270.911C121.679 271.024 120.99 269.985 120.967 268.265C120.937 266.118 120.963 263.97 120.964 261.564Z" fill="#070707"/>
<path d="M306.599 248.65C306.599 244.962 306.599 241.532 306.599 237.957C313.827 237.957 320.918 237.957 328.177 237.957C328.177 246.145 328.177 254.358 328.177 262.752C321.056 262.752 313.978 262.752 306.599 262.752C306.599 258.133 306.599 253.521 306.599 248.65Z" fill="#FAFAFA"/>
<path d="M286.728 245.036C286.728 251.055 286.728 256.816 286.728 262.753C279.516 262.753 272.437 262.753 265.168 262.753C265.168 254.536 265.168 246.33 265.168 237.966C272.266 237.966 279.345 237.966 286.728 237.966C286.728 240.208 286.728 242.493 286.728 245.036Z" fill="#FAFAFA"/>
<path d="M91.1569 237.319C96.3544 237.314 101.329 237.362 106.301 237.288C108.323 237.258 109.171 238.179 109.158 240.351C109.121 246.62 109.152 252.889 109.15 259.157C109.15 260.759 108.844 262.115 106.984 262.115C101.466 262.115 95.9486 262.115 90.1269 262.115C90.1269 259.772 90.127 257.569 90.1269 255.367C90.1267 250.128 90.0933 244.89 90.1622 239.653C90.1725 238.872 90.6641 238.1 91.1569 237.319Z" fill="#FCFCFC"/>
</svg>
