<svg width="500" height="500" viewBox="0 0 500 500" fill="none" xmlns="http://www.w3.org/2000/svg">
<g clip-path="url(#clip0_15_6)">
<rect width="500" height="500" fill="black"/>
<path d="M390.157 266.717C381.513 266.691 379.481 265.7 378.806 260.939C378.592 259.43 378.745 256.806 379.539 256.439C381.184 255.677 384.478 255.264 385.141 256.157C387.865 259.825 391.444 258.235 394.659 258.432C398.626 258.674 402.62 258.489 407.027 257.412C403.963 255.882 400.917 254.317 397.831 252.833C393.339 250.673 388.802 248.608 384.315 246.438C379.864 244.285 377.249 239.628 378.285 235.553C379.532 230.651 383.113 229.257 387.768 229.327C394.096 229.422 400.427 229.26 406.756 229.307C414.833 229.368 416.511 231.341 415.706 240.875C406.579 236.773 397.185 236.443 387.269 238.6C390.071 240.053 392.834 241.584 395.681 242.94C400.782 245.37 405.976 247.609 411.053 250.088C415.818 252.414 417.221 255.622 416.011 261.303C415.051 265.814 411.527 266.663 407.622 266.693C401.959 266.737 396.295 266.712 390.157 266.717Z" fill="#F4F4F4"/>
<path d="M197.933 248.98C194.975 247.464 194.615 245.834 196.396 243.286C198.119 240.822 199.701 241.215 201.82 242.506C204.799 244.322 207.804 246.136 210.956 247.616C215.914 249.946 217.548 253.776 217 258.997C216.439 264.344 214.449 266.46 209.073 266.543C201.912 266.653 194.748 266.667 187.587 266.558C181.751 266.469 179.599 264.451 179.483 258.801C179.332 251.475 179.328 244.142 179.497 236.817C179.623 231.362 181.739 229.339 187.239 229.234C194.733 229.09 202.23 229.19 209.725 229.098C212.2 229.068 213.871 229.449 213.925 232.549C213.978 235.574 212.815 236.799 209.852 236.765C203.857 236.696 197.857 236.858 191.865 236.706C188.769 236.628 187.204 237.554 187.312 240.911C187.463 245.569 187.1 250.258 187.496 254.887C187.612 256.249 189.47 258.451 190.678 258.555C195.471 258.968 200.329 258.835 205.148 258.597C206.391 258.536 207.578 257.354 208.791 256.687C207.889 255.634 207.164 254.312 206.051 253.58C203.558 251.941 200.872 250.595 197.933 248.98Z" fill="#EFEFEF"/>
<path d="M272.116 266.716C269.808 266.674 267.974 266.722 266.155 266.579C262.266 266.274 259.949 264.149 259.89 260.22C259.766 252.08 259.768 243.936 259.893 235.796C259.954 231.853 262.385 229.514 266.17 229.403C274.138 229.168 282.121 229.198 290.092 229.384C294.186 229.479 296.591 232.007 296.676 236.08C296.841 244.052 296.869 252.034 296.667 260.004C296.558 264.347 293.919 266.603 289.545 266.642C283.896 266.694 278.246 266.696 272.116 266.716ZM288.431 241.563C288.331 240.151 288.231 238.738 288.137 237.4C281.172 237.4 274.62 237.4 267.808 237.4C267.808 243.841 267.7 249.973 267.912 256.093C267.948 257.135 269.316 258.979 270.128 259.012C276.181 259.262 282.249 259.148 288.431 259.148C288.431 253.171 288.431 247.863 288.431 241.563Z" fill="#EEEEEE"/>
<path d="M151.324 258.727C155.951 258.742 160.115 258.689 164.277 258.767C166.967 258.818 168.23 257.8 168.149 254.948C168.012 250.123 167.998 245.287 168.153 240.463C168.246 237.598 166.987 236.614 164.312 236.64C158.317 236.698 152.321 236.585 146.327 236.679C143.387 236.725 141.696 236.11 141.77 232.55C141.846 228.912 143.997 229.111 146.424 229.122C152.919 229.15 159.415 229.038 165.908 229.158C172.713 229.283 175.956 232.568 176.055 239.362C176.149 245.855 176.178 252.352 176.051 258.845C175.952 263.931 173.236 266.576 168.319 266.603C161.493 266.641 154.667 266.552 147.842 266.588C143.984 266.609 140.243 266.282 139.089 261.77C137.924 257.215 137.941 252.562 142.283 249.586C146.241 246.873 150.508 244.529 154.884 242.573C155.912 242.114 158.454 243.512 159.31 244.743C159.876 245.558 159.159 248.278 158.183 248.97C154.495 251.586 150.467 253.722 146.565 256.037C146.682 256.546 146.8 257.056 146.917 257.565C148.232 257.948 149.546 258.332 151.324 258.727Z" fill="#F2F2F2"/>
<path d="M337.121 241.283C337.116 247.413 337.181 253.08 337.085 258.743C336.99 264.28 335.005 266.532 329.655 266.672C322.329 266.863 314.989 266.869 307.664 266.659C302.471 266.509 300.21 264.067 300.1 258.733C299.953 251.571 299.965 244.402 300.09 237.239C300.18 232.043 302.583 229.482 307.71 229.348C315.037 229.155 322.376 229.133 329.702 229.338C335.657 229.504 337.05 231.874 337.121 241.283ZM313.624 259.226C318.677 259.226 323.729 259.226 328.903 259.226C328.903 251.383 328.903 244.489 328.903 237.428C321.995 237.428 315.318 237.428 308.496 237.428C308.496 244.762 308.496 251.795 308.496 259.014C310.059 259.094 311.358 259.16 313.624 259.226Z" fill="#F2F2F2"/>
<path d="M89.0291 255.963C89.03 248.323 89.2311 241.17 88.9542 234.036C88.7968 229.979 90.3457 228.81 94.1874 228.953C100.659 229.194 107.147 228.945 113.626 229.053C120.155 229.162 123.123 232.047 123.247 238.515C123.38 245.491 123.314 252.472 123.249 259.451C123.207 263.828 120.918 266.374 116.518 266.435C107.568 266.56 98.6151 266.472 89.0291 266.472C89.0291 262.956 89.0291 259.707 89.0291 255.963ZM97.1132 243.619C97.1132 248.414 97.1132 253.209 97.1132 258.486C102.574 258.486 107.692 258.67 112.776 258.334C113.818 258.265 115.496 256.3 115.57 255.126C115.885 250.157 115.881 245.146 115.579 240.176C115.504 238.942 113.943 236.845 112.958 236.78C107.756 236.438 102.519 236.62 97.1132 236.62C97.1132 239.014 97.1132 240.837 97.1132 243.619Z" fill="#FAFAFA"/>
<path d="M223.685 229.295C233.262 229.27 242.409 229.301 251.554 229.241C254.294 229.223 256.409 229.345 256.393 233.095C256.378 236.551 254.857 237.17 251.819 237.197C242.354 237.284 242.359 237.391 242.371 246.804C242.377 251.627 242.333 256.45 242.377 261.272C242.404 264.2 242.726 266.944 238.249 266.84C234.115 266.743 234.357 264.209 234.367 261.456C234.39 254.97 234.22 248.48 234.428 242.001C234.543 238.424 233.527 236.625 229.665 237.103C228.027 237.305 226.256 237.456 224.706 237.038C223.227 236.64 221.181 235.746 220.765 234.579C220.031 232.517 219.71 229.763 223.685 229.295Z" fill="#EFEFEF"/>
<path d="M355.113 259.028C360.599 259.043 365.62 258.78 370.574 259.238C372.079 259.377 374.247 261.288 374.628 262.77C375.394 265.75 373.247 266.63 370.431 266.588C363.272 266.48 356.11 266.646 348.952 266.541C342.866 266.452 340.76 264.465 340.644 258.474C340.483 250.152 340.68 241.823 340.531 233.501C340.473 230.282 341.619 229.058 344.886 229.073C348.408 229.089 348.444 231.195 348.431 233.692C348.397 240.02 348.727 246.366 348.328 252.668C348.016 257.609 349.398 259.991 355.113 259.028Z" fill="#F4F4F4"/>
<path d="M129.357 229.229C133.542 228.617 135.18 229.868 135.059 234.028C134.784 243.49 134.887 252.967 135.024 262.434C135.066 265.381 134.13 266.712 131.085 266.697C128.4 266.684 127.087 265.703 127.101 262.908C127.151 252.774 127.071 242.639 127.206 232.507C127.221 231.43 128.331 230.368 129.357 229.229Z" fill="#EFEFEF"/>
</g>
<defs>
<clipPath id="clip0_15_6">
<rect width="500" height="500" fill="white"/>
</clipPath>
</defs>
</svg>
